<svg xmlns="http://www.w3.org/2000/svg" viewBox="0 0 400 280" width="400" height="280">
  <defs>
    <linearGradient id="s13bg" x1="0%" y1="0%" x2="0%" y2="100%">
      <stop offset="0%" style="stop-color:#f5e8d8"/>
      <stop offset="100%" style="stop-color:#e8d0b8"/>
    </linearGradient>
    <radialGradient id="s13flour" cx="50%" cy="45%" r="55%">
      <stop offset="0%" style="stop-color:#fff;stop-opacity:.45"/>
      <stop offset="100%" style="stop-color:#fff;stop-opacity:0"/>
    </radialGradient>
  </defs>
  <rect width="400" height="280" fill="url(#s13bg)"/>
  <ellipse cx="200" cy="125" rx="140" ry="75" fill="url(#s13flour)"/>
  <ellipse cx="200" cy="235" rx="175" ry="38" fill="#c4a574" opacity=".38"/>
  <rect x="70" y="175" width="260" height="12" rx="4" fill="#8b6914" opacity=".32"/>
  <ellipse cx="125" cy="195" rx="36" ry="20" fill="#e8c4a8" opacity=".9"/>
  <ellipse cx="125" cy="218" rx="42" ry="28" fill="#d49878" opacity=".55"/>
  <path d="M95 175 Q125 150 155 175" stroke="#a06848" fill="none" stroke-width="4" stroke-linecap="round" opacity=".55"/>
  <ellipse cx="275" cy="192" rx="40" ry="22" fill="#e8b090" opacity=".88"/>
  <ellipse cx="275" cy="218" rx="46" ry="30" fill="#c47858" opacity=".45"/>
  <path d="M245 168 Q275 145 305 172" stroke="#904838" fill="none" stroke-width="4.5" stroke-linecap="round" opacity=".5"/>
  <ellipse cx="200" cy="188" rx="52" ry="28" fill="#faf5ee" opacity=".95"/>
  <ellipse cx="188" cy="185" rx="14" ry="8" fill="#e8ddd0" opacity=".8"/>
  <ellipse cx="212" cy="188" rx="16" ry="9" fill="#e8ddd0" opacity=".75"/>
  <ellipse cx="200" cy="195" rx="38" ry="18" fill="#f0e8dc" opacity=".9"/>
  <circle cx="160" cy="155" r="8" fill="#faf8f4" opacity=".7"/>
  <circle cx="230" cy="148" r="10" fill="#faf8f4" opacity=".65"/>
  <circle cx="200" cy="138" r="12" fill="#fff" opacity=".55"/>
</svg>
