<svg xmlns="http://www.w3.org/2000/svg" viewBox="0 0 400 280" width="400" height="280">
  <defs>
    <linearGradient id="s12sky" x1="0%" y1="0%" x2="0%" y2="100%">
      <stop offset="0%" style="stop-color:#c8d4e0"/>
      <stop offset="55%" style="stop-color:#e8ddd0"/>
      <stop offset="100%" style="stop-color:#e8d4b8"/>
    </linearGradient>
    <linearGradient id="s12win" x1="0%" y1="0%" x2="100%" y2="100%">
      <stop offset="0%" style="stop-color:#a8b8c8;stop-opacity:.35"/>
      <stop offset="100%" style="stop-color:#d8e4f0;stop-opacity:.2"/>
    </linearGradient>
    <radialGradient id="s12lamp" cx="75%" cy="35%" r="45%">
      <stop offset="0%" style="stop-color:#f5e8c8;stop-opacity:.55"/>
      <stop offset="100%" style="stop-color:#f5e8c8;stop-opacity:0"/>
    </radialGradient>
  </defs>
  <rect width="400" height="280" fill="url(#s12sky)"/>
  <rect x="220" y="20" width="160" height="200" rx="4" fill="url(#s12win)" stroke="#8a9aaa" stroke-width="2" opacity=".85"/>
  <path d="M235 50 L245 180 M260 40 L275 190 M285 55 L292 175" stroke="#a0b0c0" stroke-width="2" opacity=".4"/>
  <ellipse cx="300" cy="240" rx="170" ry="35" fill="#c4a574" opacity=".35"/>
  <rect x="55" y="145" width="200" height="10" rx="3" fill="#6b5030" opacity=".4"/>
  <rect x="85" y="165" width="95" height="58" rx="6" fill="#5a4530" opacity=".55"/>
  <rect x="95" y="175" width="75" height="38" rx="3" fill="#7a6048" opacity=".5"/>
  <path d="M100 188 L165 188" stroke="#a08060" stroke-width="2" opacity=".45"/>
  <rect x="195" y="168" width="52" height="68" rx="4" fill="#f5edd8" stroke="#c4a574" stroke-width="1.5" opacity=".95"/>
  <line x1="205" y1="182" x2="238" y2="182" stroke="#b89870" stroke-width="1.2" opacity=".5"/>
  <line x1="205" y1="194" x2="235" y2="194" stroke="#b89870" stroke-width="1.2" opacity=".5"/>
  <line x1="205" y1="206" x2="232" y2="206" stroke="#b89870" stroke-width="1.2" opacity=".5"/>
  <ellipse cx="285" cy="188" rx="38" ry="18" fill="#d4845a" opacity=".82"/>
  <ellipse cx="310" cy="182" rx="34" ry="16" fill="#e8a878" opacity=".88"/>
  <ellipse cx="268" cy="192" rx="30" ry="14" fill="#d4845a" opacity=".8"/>
  <ellipse cx="285" cy="130" rx="100" ry="48" fill="url(#s12lamp)"/>
  <circle cx="318" cy="48" r="22" fill="#e8c878" opacity=".65"/>
</svg>
