<svg xmlns="http://www.w3.org/2000/svg" viewBox="0 0 400 280" width="400" height="280">
  <defs>
    <linearGradient id="s2sky" x1="0%" y1="0%" x2="100%" y2="100%">
      <stop offset="0%" style="stop-color:#1a1c2e"/>
      <stop offset="55%" style="stop-color:#4a3e5c"/>
      <stop offset="100%" style="stop-color:#6a5a4a"/>
    </linearGradient>
    <linearGradient id="s2road" x1="0%" y1="0%" x2="0%" y2="100%">
      <stop offset="0%" style="stop-color:#5a5048"/>
      <stop offset="100%" style="stop-color:#3a3530"/>
    </linearGradient>
  </defs>
  <rect width="400" height="280" fill="url(#s2sky)"/>
  <ellipse cx="60" cy="50" r="12" fill="#c8c8d0" opacity=".3"/>
  <ellipse cx="200" cy="45" r="8" fill="#a8a8b0" opacity=".25"/>
  <path d="M0 180 L400 200 L400 280 L0 280 Z" fill="url(#s2road)"/>
  <rect x="240" y="140" width="36" height="48" rx="2" fill="#6a5040" opacity=".9"/>
  <rect x="248" y="130" width="20" height="12" rx="1" fill="#8a7060"/>
  <ellipse cx="255" cy="195" rx="8" ry="8" fill="#2a2820"/>
  <ellipse cx="275" cy="195" rx="8" ry="8" fill="#2a2820"/>
  <ellipse cx="150" cy="155" rx="14" ry="18" fill="#e8b090"/>
  <ellipse cx="150" cy="178" rx="20" ry="14" fill="#4a6e8a" opacity=".7"/>
  <ellipse cx="175" cy="148" rx="10" ry="12" fill="#e8c8a8"/>
  <path d="M130 200 L170 200 L165 215 L135 215 Z" fill="#5a4a38" opacity=".6"/>
</svg>
